<svg width="73" height="72" viewBox="0 0 73 72" fill="none" xmlns="http://www.w3.org/2000/svg">
<rect x="0.291687" width="72" height="72" rx="36" fill="#F4F5F7"/>
<g clip-path="url(#clip0)">
<path d="M42.2917 34H48.2917L45.2917 30L42.2917 34ZM42.2917 38H48.2917L45.2917 42L42.2917 38Z" fill="#D6B1FF"/>
<path d="M25.2917 24H31.2917V48H25.2917C25.0265 48 24.7721 47.8946 24.5846 47.7071C24.397 47.5196 24.2917 47.2652 24.2917 47V25C24.2917 24.7348 24.397 24.4804 24.5846 24.2929C24.7721 24.1054 25.0265 24 25.2917 24Z" fill="#8C30F5"/>
<path d="M33.2917 24H39.2917C39.5569 24 39.8113 24.1054 39.9988 24.2929C40.1863 24.4804 40.2917 24.7348 40.2917 25V47C40.2917 47.2652 40.1863 47.5196 39.9988 47.7071C39.8113 47.8946 39.5569 48 39.2917 48H33.2917V24Z" fill="#2EC5CE"/>
</g>
<defs>
<clipPath id="clip0">
<rect width="24" height="24" fill="white" transform="translate(24.2917 24)"/>
</clipPath>
</defs>
</svg>
